<svg xmlns="http://www.w3.org/2000/svg" xmlns:xlink="http://www.w3.org/1999/xlink" width="375" height="377" viewBox="0 0 375 377">
  <defs>
    <clipPath id="clip-path">
      <rect id="Rectangle_2846" data-name="Rectangle 2846" width="375" height="377" transform="translate(-3185.595 -7766)" fill="#fff"/>
    </clipPath>
    <clipPath id="clip-path-2">
      <rect id="Rectangle_2858" data-name="Rectangle 2858" width="360" height="235" transform="translate(-3407 -7736)" fill="#fff"/>
    </clipPath>
  </defs>
  <g id="Group_54412" data-name="Group 54412" transform="translate(7891 7423)">
    <g id="Mask_Group_20" data-name="Mask Group 20" transform="translate(-4705.405 343)" clip-path="url(#clip-path)">
      <circle id="Ellipse_259" data-name="Ellipse 259" cx="231.5" cy="231.5" r="231.5" transform="translate(-3109.595 -7857)" fill="#ff6257"/>
    </g>
    <g id="Mask_Group_21" data-name="Mask Group 21" transform="translate(-4469 408)" clip-path="url(#clip-path-2)">
      <g id="Group_54411" data-name="Group 54411" transform="translate(-21.86 3.766)">
        <path id="Path_22167" data-name="Path 22167" d="M573.939,1474.731l305.452-1.545a7.683,7.683,0,0,1,7.722,7.684v144.079l-398.86,22.483v-22.483l37.958-102.339Z" transform="translate(-3781.394 -9208.521)" fill="#fff"/>
        <path id="Path_22168" data-name="Path 22168" d="M0,0H141.2l-6.418,10.269H0Z" transform="translate(-3176.991 -7644.634)" fill="#0e9247"/>
        <path id="Path_22169" data-name="Path 22169" d="M141.2,10.269H0L6.418,0H141.2Z" transform="translate(-3035.792 -7644.634)" fill="#0e9247"/>
        <path id="Path_22170" data-name="Path 22170" d="M0,0H148.015l-6.728,7.7H0Z" transform="translate(-3176.991 -7654.903)" fill="#ff4a4a"/>
        <path id="Path_22171" data-name="Path 22171" d="M148.015,7.7H0L6.728,0H148.015Z" transform="translate(-3042.609 -7631.797)"/>
        <path id="Path_22172" data-name="Path 22172" d="M1793.79,1971.37h-17.6a4.932,4.932,0,0,1-4.927-4.926v-17.768h27.454v17.768A4.932,4.932,0,0,1,1793.79,1971.37ZM1774.584,1952v14.447a1.606,1.606,0,0,0,1.605,1.6h17.6a1.607,1.607,0,0,0,1.606-1.6V1952Z" transform="translate(-4538.475 -9489.1)" fill="#005649"/>
        <rect id="Rectangle_2847" data-name="Rectangle 2847" width="514.651" height="42.509" transform="translate(-3272.452 -7583.574)" fill="#272727"/>
        <g id="Group_54386" data-name="Group 54386" transform="translate(-2852.817 -7577.364)">
          <circle id="Ellipse_260" data-name="Ellipse 260" cx="36.299" cy="36.299" r="36.299" transform="translate(0)" fill="#016153"/>
          <path id="Path_22173" data-name="Path 22173" d="M1618.607,1892.248a22.49,22.49,0,1,0,22.49,22.491A22.491,22.491,0,0,0,1618.607,1892.248Zm3.08,2.465a20.223,20.223,0,0,1,12.3,6.846l-7.794,4.814a11.269,11.269,0,0,0-4.5-2.5Zm-6.161,0v9.163a11.273,11.273,0,0,0-4.5,2.5l-7.794-4.814A20.224,20.224,0,0,1,1615.526,1894.714Zm-15.6,27.88a20.311,20.311,0,0,1,.041-15.8l7.791,4.812a11.283,11.283,0,0,0-.029,6.173Zm15.6,12.171a20.225,20.225,0,0,1-12.365-6.925l7.785-4.808a11.27,11.27,0,0,0,4.58,2.57Zm-2.025-20.025a5.106,5.106,0,1,1,5.107,5.107A5.107,5.107,0,0,1,1613.5,1914.739Zm8.187,20.025V1925.6a11.269,11.269,0,0,0,4.581-2.57l7.785,4.808A20.228,20.228,0,0,1,1621.687,1934.764Zm7.795-16.99a11.277,11.277,0,0,0-.029-6.173l7.792-4.812a20.315,20.315,0,0,1,.041,15.8Z" transform="translate(-1582.307 -1878.439)" fill="#a3e9f3"/>
        </g>
        <g id="Group_54389" data-name="Group 54389" transform="translate(-3161.673 -7577.364)">
          <g id="Group_54388" data-name="Group 54388" transform="translate(0)">
            <g id="Group_54387" data-name="Group 54387">
              <circle id="Ellipse_261" data-name="Ellipse 261" cx="36.299" cy="36.299" r="36.299"/>
            </g>
          </g>
          <path id="Path_22174" data-name="Path 22174" d="M865.148,1892.248a22.49,22.49,0,1,0,22.49,22.49A22.49,22.49,0,0,0,865.148,1892.248Zm3.081,2.465a20.222,20.222,0,0,1,12.3,6.846l-7.794,4.814a11.284,11.284,0,0,0-4.5-2.5Zm-6.162,0v9.163a11.282,11.282,0,0,0-4.5,2.5l-7.794-4.814A20.221,20.221,0,0,1,862.067,1894.713Zm-15.6,27.88a20.31,20.31,0,0,1,.042-15.805l7.791,4.812a11.278,11.278,0,0,0-.029,6.173Zm15.6,12.171a20.227,20.227,0,0,1-12.366-6.925l7.786-4.809a11.269,11.269,0,0,0,4.58,2.571Zm-2.025-20.026a5.106,5.106,0,1,1,5.106,5.106A5.106,5.106,0,0,1,860.042,1914.738Zm8.187,20.026V1925.6a11.271,11.271,0,0,0,4.58-2.571l7.785,4.809A20.226,20.226,0,0,1,868.229,1934.764Zm7.795-16.991a11.285,11.285,0,0,0-.029-6.173l7.791-4.812a20.311,20.311,0,0,1,.042,15.805Z" transform="translate(-828.849 -1878.439)" fill="#fff"/>
        </g>
        <g id="Group_54392" data-name="Group 54392" transform="translate(-3082.281 -7577.412)">
          <g id="Group_54391" data-name="Group 54391" transform="translate(0)">
            <g id="Group_54390" data-name="Group 54390">
              <ellipse id="Ellipse_262" data-name="Ellipse 262" cx="36.299" cy="36.299" rx="36.299" ry="36.299"/>
            </g>
          </g>
          <path id="Path_22175" data-name="Path 22175" d="M1058.827,1892.132a22.49,22.49,0,1,0,22.49,22.49A22.49,22.49,0,0,0,1058.827,1892.132Zm3.08,2.465a20.221,20.221,0,0,1,12.3,6.846l-7.794,4.814a11.268,11.268,0,0,0-4.5-2.5Zm-6.161,0v9.163a11.274,11.274,0,0,0-4.5,2.5l-7.794-4.814A20.221,20.221,0,0,1,1055.746,1894.6Zm-15.6,27.88a20.313,20.313,0,0,1,.041-15.8l7.791,4.811a11.282,11.282,0,0,0-.029,6.174Zm15.6,12.17a20.226,20.226,0,0,1-12.365-6.925l7.786-4.809a11.258,11.258,0,0,0,4.58,2.57Zm-2.025-20.025a5.106,5.106,0,1,1,5.106,5.106A5.106,5.106,0,0,1,1053.721,1914.622Zm8.186,20.025v-9.163a11.259,11.259,0,0,0,4.581-2.57l7.785,4.809A20.227,20.227,0,0,1,1061.908,1934.647Zm7.8-16.99a11.288,11.288,0,0,0-.029-6.174l7.791-4.811a20.313,20.313,0,0,1,.041,15.8Z" transform="translate(-1022.528 -1878.323)" fill="#fff"/>
        </g>
        <path id="Path_22176" data-name="Path 22176" d="M1627.571,1476.888h-92.776a11.125,11.125,0,0,0-11.114,10.616l-6.156,134.513h-1.108a19.262,19.262,0,0,0-19.262,19.262v45.934a4.919,4.919,0,0,0,4.919,4.919h13.366a4.918,4.918,0,0,0,4.919-4.919v-17.572a39.853,39.853,0,0,1,79.644-2.23,40.392,40.392,0,0,1-.263,7.337h62.25V1556.814l-22.211-70.956A12.792,12.792,0,0,0,1627.571,1476.888Z" transform="translate(-4376.729 -9210.707)" fill="#00ac6a"/>
        <path id="Path_22177" data-name="Path 22177" d="M1721.851,1858.56a46.4,46.4,0,0,1,17.444,36.3c0,.456-.008.908-.021,1.36H1772.3v-37.66Z" transform="translate(-4509.317 -9435.925)" fill="#019d78"/>
        <path id="Path_22178" data-name="Path 22178" d="M1808.54,1505.022h-24.646a2.1,2.1,0,0,0-1.924,2.94l26.192,59.98a4.961,4.961,0,0,0,3.763,2.912l18.135,2.894Z" transform="translate(-4544.688 -9227.308)" fill="#e2f5ee"/>
        <path id="Path_22179" data-name="Path 22179" d="M1718.133,1572.725H1661a3.709,3.709,0,0,1-3.709-3.709V1513a3.71,3.71,0,0,1,3.709-3.71h36.014a3.71,3.71,0,0,1,3.471,2.4l21.115,56.013A3.709,3.709,0,0,1,1718.133,1572.725Z" transform="translate(-4471.224 -9229.828)" fill="#e2f5ee"/>
        <path id="Path_22180" data-name="Path 22180" d="M1567.917,1572.933h26.94a1.7,1.7,0,0,0,1.7-1.7v-60.243a1.7,1.7,0,0,0-1.7-1.7h-24.111a1.7,1.7,0,0,0-1.7,1.62l-2.83,60.242A1.7,1.7,0,0,0,1567.917,1572.933Z" transform="translate(-4417.481 -9229.828)" fill="#019d78"/>
        <path id="Path_22181" data-name="Path 22181" d="M1715.742,1572h-57.129a5.377,5.377,0,0,1-5.37-5.37v-56.013a5.376,5.376,0,0,1,5.37-5.37h36.014a5.4,5.4,0,0,1,5.026,3.476l21.115,56.013a5.371,5.371,0,0,1-5.025,7.265Zm-57.129-63.432a2.051,2.051,0,0,0-2.049,2.049v56.013a2.051,2.051,0,0,0,2.049,2.049h57.129a2.049,2.049,0,0,0,1.917-2.772l-21.115-56.013a2.059,2.059,0,0,0-1.918-1.326Z" transform="translate(-4468.833 -9227.438)" fill="#ffe94d"/>
        <path id="Path_22182" data-name="Path 22182" d="M1827.669,1573.018a1.639,1.639,0,0,1-.261-.021l-18.134-2.894a6.587,6.587,0,0,1-5.023-3.888l-26.193-59.98a3.759,3.759,0,0,1,3.446-5.264h24.646a1.659,1.659,0,0,1,1.584,1.165l21.519,68.725a1.66,1.66,0,0,1-1.585,2.156Zm-46.164-68.725a.439.439,0,0,0-.4.615l26.192,59.98a3.286,3.286,0,0,0,2.5,1.937l15.487,2.471-20.353-65Z" transform="translate(-4542.299 -9224.918)" fill="#ffe94d"/>
        <rect id="Rectangle_2848" data-name="Rectangle 2848" width="6.421" height="47.823" transform="translate(-2721.16 -7640.83)" fill="#ffae00"/>
        <rect id="Rectangle_2849" data-name="Rectangle 2849" width="23.579" height="51.255" rx="8.102" transform="translate(-2733.337 -7578.395)" fill="#018061"/>
        <path id="Path_22183" data-name="Path 22183" d="M1853.9,1972.982a3.321,3.321,0,0,0,3.321,3.321h16.938a3.321,3.321,0,0,0,3.321-3.321Z" transform="translate(-4587.237 -9503.443)" fill="#019d78"/>
        <path id="Path_22184" data-name="Path 22184" d="M1820.661,1742.381h0a1.328,1.328,0,0,1-1.329-1.328v-72.177a1.328,1.328,0,0,1,1.329-1.328h0a1.328,1.328,0,0,1,1.328,1.328v72.177A1.328,1.328,0,0,1,1820.661,1742.381Z" transform="translate(-4566.839 -9323.211)" fill="#019d78"/>
        <path id="Path_22185" data-name="Path 22185" d="M1655.382,1714.3h0a1.329,1.329,0,0,1-1.329-1.329v-38.967a1.329,1.329,0,0,1,1.329-1.328h0a1.329,1.329,0,0,1,1.329,1.328v38.967A1.328,1.328,0,0,1,1655.382,1714.3Z" transform="translate(-4469.311 -9326.238)" fill="#019d78"/>
        <rect id="Rectangle_2850" data-name="Rectangle 2850" width="17.671" height="6.864" transform="translate(-2813.93 -7606.291)" fill="#016153"/>
        <path id="Path_22186" data-name="Path 22186" d="M1672.717,1467.964h-79.151v-2.879a3.321,3.321,0,0,1,3.321-3.321h61.281a17.715,17.715,0,0,1,9.992,3.086Z" transform="translate(-4433.619 -9201.782)" fill="#018061"/>
        <path id="Path_22187" data-name="Path 22187" d="M1668.159,1469.293l-74.593.234v2.879h79.151Z" transform="translate(-4433.619 -9206.226)" fill="#019d78"/>
        <path id="Path_22188" data-name="Path 22188" d="M554.8,1650.294H444.172a4.4,4.4,0,0,1-4.4-4.4v-5.242a4.4,4.4,0,0,1,1.053-2.856l149.412-175.01a2.923,2.923,0,0,1,2.223-1.025h10.946a2.923,2.923,0,0,1,2.835,3.634l-45.2,180.022A6.442,6.442,0,0,1,554.8,1650.294Z" transform="translate(-3752.787 -9201.782)" fill="#e6e6e6"/>
        <rect id="Rectangle_2851" data-name="Rectangle 2851" width="121.661" height="29.493" rx="12.153" transform="translate(-3323.375 -7545.12)" fill="#0e9247"/>
        <g id="Group_54394" data-name="Group 54394" transform="translate(-3251.043 -7566.666)">
          <g id="Group_54393" data-name="Group 54393">
            <path id="Path_22189" data-name="Path 22189" d="M619.755,1887.641a6.281,6.281,0,0,0-8.773,8.627l-10.695,15.962a6.281,6.281,0,1,0,4.131,2.768l10.695-15.962a6.281,6.281,0,0,0,4.642-11.394Z" transform="translate(-592.078 -1885.792)" fill="#0e9247"/>
            <path id="Path_22190" data-name="Path 22190" d="M613.915,1885.565a6.281,6.281,0,1,1,.072,12.338l-10.695,15.962a6.277,6.277,0,1,1-4.131-2.767l10.695-15.962a6.282,6.282,0,0,1,4.059-9.571Zm-.152-.771a7.067,7.067,0,0,0-4.835,10.315l-10.143,15.138a7.067,7.067,0,1,0,5.436,3.643l10.143-15.139a7.067,7.067,0,1,0-.6-13.958Z" transform="translate(-590.952 -1884.658)"/>
          </g>
          <circle id="Ellipse_263" data-name="Ellipse 263" cx="2.944" cy="2.944" r="2.944" transform="translate(21.237 4.124)"/>
          <path id="Path_22191" data-name="Path 22191" d="M606.391,1961.623a2.944,2.944,0,1,1-.807-4.084A2.945,2.945,0,0,1,606.391,1961.623Z" transform="translate(-596.881 -1927.369)"/>
          <path id="Path_22192" data-name="Path 22192" d="M618.493,1931.551l10.695-15.962a6.263,6.263,0,0,1-2.351-.958l-10.124,15.11A6.258,6.258,0,0,1,618.493,1931.551Z" transform="translate(-606.153 -1902.344)"/>
        </g>
        <g id="Group_54396" data-name="Group 54396" transform="translate(-3289.128 -7566.666)">
          <g id="Group_54395" data-name="Group 54395">
            <path id="Path_22193" data-name="Path 22193" d="M526.846,1887.641a6.281,6.281,0,0,0-8.773,8.627l-10.695,15.962a6.281,6.281,0,1,0,4.131,2.768l10.695-15.962a6.281,6.281,0,0,0,4.642-11.394Z" transform="translate(-499.169 -1885.792)" fill="#018061"/>
            <path id="Path_22194" data-name="Path 22194" d="M521.006,1885.565a6.281,6.281,0,1,1,.072,12.338l-10.695,15.962a6.277,6.277,0,1,1-4.131-2.767l10.695-15.962a6.281,6.281,0,0,1,4.059-9.571Zm-.152-.771a7.066,7.066,0,0,0-4.835,10.315l-10.144,15.138a7.067,7.067,0,1,0,5.436,3.643l10.144-15.139a7.067,7.067,0,1,0-.6-13.958Z" transform="translate(-498.042 -1884.658)" fill="#019d78"/>
          </g>
          <path id="Path_22195" data-name="Path 22195" d="M555.239,1899.3a2.944,2.944,0,1,1-.807-4.085A2.945,2.945,0,0,1,555.239,1899.3Z" transform="translate(-528.612 -1890.595)" fill="#019d78"/>
          <circle id="Ellipse_264" data-name="Ellipse 264" cx="2.944" cy="2.944" r="2.944" transform="translate(3.155 31.181) rotate(-24.857)" fill="#019d78"/>
          <path id="Path_22196" data-name="Path 22196" d="M525.584,1931.551l10.695-15.962a6.262,6.262,0,0,1-2.351-.958l-10.125,15.11A6.264,6.264,0,0,1,525.584,1931.551Z" transform="translate(-513.244 -1902.344)" fill="#019d78"/>
        </g>
        <path id="Path_22197" data-name="Path 22197" d="M646.369,1485.319h8.851a1.2,1.2,0,0,1,1.155,1.508l-35.795,132.5a7.158,7.158,0,0,1-6.9,5.292l-79.328.169a2.711,2.711,0,0,1-2.08-4.455l113.168-134.58A1.2,1.2,0,0,1,646.369,1485.319Z" transform="translate(-3806.994 -9215.682)" fill="#fff"/>
        <path id="Path_22198" data-name="Path 22198" d="M752.287,1626.733l37.79-150.523h2.858l-37.2,150.523Z" transform="translate(-3937.196 -9210.308)" fill="#0e9247"/>
        <path id="Path_22199" data-name="Path 22199" d="M947.769,1813.917H789.245a9.631,9.631,0,0,0-9.631,9.632v57.827a9.63,9.63,0,0,0,8.485,9.56l0-22.42a39.853,39.853,0,0,1,73.564-21.254H873.6a39.853,39.853,0,0,1,73.594,21.207l-.005,22.538h.583a9.632,9.632,0,0,0,9.631-9.631v-57.827A9.631,9.631,0,0,0,947.769,1813.917Z" transform="translate(-3953.321 -9409.581)" fill="#404040"/>
        <path id="Path_22200" data-name="Path 22200" d="M1199.462,1823.549v2.458h6.642v-2.458a9.631,9.631,0,0,0-9.631-9.632h-6.641A9.631,9.631,0,0,1,1199.462,1823.549Z" transform="translate(-4195.383 -9409.581)" fill="#019d78"/>
        <path id="Path_22201" data-name="Path 22201" d="M703.867,1511.5v-39.089a2.546,2.546,0,0,0-2.546-2.546h-2.879a2.546,2.546,0,0,0-2.546,2.546v48.425Z" transform="translate(-3903.921 -9206.563)" fill="#cecece"/>
        <path id="Path_22202" data-name="Path 22202" d="M695.765,1515.391v-42.979a2.546,2.546,0,0,0-2.546-2.546h-2.878a2.546,2.546,0,0,0-2.546,2.546v52.314Z" transform="translate(-3899.14 -9206.563)" fill="#dbdbdb"/>
        <g id="Group_54397" data-name="Group 54397" transform="translate(-3300.536 -7649.099)">
          <path id="Path_22203" data-name="Path 22203" d="M476.109,1851.728h-5.895l4.116-4.74,5.877-.007Z" transform="translate(-470.215 -1779.994)" fill="#fff"/>
          <path id="Path_22204" data-name="Path 22204" d="M486.134,1840.2l-5.877.007,4.084-4.7,5.86-.013Z" transform="translate(-476.14 -1773.214)" fill="#fff"/>
          <path id="Path_22205" data-name="Path 22205" d="M496.081,1828.765l-5.86.013,4.053-4.667,5.843-.019Z" transform="translate(-482.02 -1766.487)" fill="#fff"/>
          <path id="Path_22206" data-name="Path 22206" d="M505.95,1817.417l-5.843.02,4.021-4.631,5.826-.026Z" transform="translate(-487.854 -1759.812)" fill="#fff"/>
          <path id="Path_22207" data-name="Path 22207" d="M515.743,1806.157l-5.826.026,3.991-4.594,5.809-.032Z" transform="translate(-493.643 -1753.189)" fill="#fff"/>
          <path id="Path_22208" data-name="Path 22208" d="M525.461,1794.983l-5.809.032,3.96-4.56,5.792-.038Z" transform="translate(-499.387 -1746.616)" fill="#fff"/>
          <path id="Path_22209" data-name="Path 22209" d="M535.1,1783.9l-5.792.038,3.93-4.525,5.776-.044Z" transform="translate(-505.087 -1740.094)" fill="#fff"/>
          <path id="Path_22210" data-name="Path 22210" d="M544.674,1772.892l-5.775.044,3.9-4.49,5.759-.05Z" transform="translate(-510.744 -1733.622)" fill="#fff"/>
          <path id="Path_22211" data-name="Path 22211" d="M554.171,1761.972l-5.759.05,3.87-4.456,5.742-.057Z" transform="translate(-516.357 -1727.198)" fill="#fff"/>
          <path id="Path_22212" data-name="Path 22212" d="M563.6,1751.135l-5.742.056,3.841-4.423,5.726-.063Z" transform="translate(-521.928 -1720.822)" fill="#fff"/>
          <path id="Path_22213" data-name="Path 22213" d="M572.949,1740.38l-5.726.062,3.812-4.39,5.709-.068Z" transform="translate(-527.458 -1714.496)" fill="#fff"/>
          <path id="Path_22214" data-name="Path 22214" d="M582.232,1729.7l-5.709.068,3.783-4.357,5.693-.073Z" transform="translate(-532.945 -1708.217)" fill="#fff"/>
          <path id="Path_22215" data-name="Path 22215" d="M591.445,1719.111l-5.693.073,3.755-4.324,5.677-.079Z" transform="translate(-538.391 -1701.985)" fill="#fff"/>
          <path id="Path_22216" data-name="Path 22216" d="M600.59,1708.6l-5.677.079,3.727-4.292,5.661-.084Z" transform="translate(-543.797 -1695.799)" fill="#fff"/>
          <path id="Path_22217" data-name="Path 22217" d="M609.667,1698.157l-5.661.085,3.7-4.26,5.645-.09Z" transform="translate(-549.162 -1689.659)" fill="#fff"/>
          <path id="Path_22218" data-name="Path 22218" d="M618.676,1687.8l-5.644.089,3.672-4.228,5.628-.1Z" transform="translate(-554.488 -1683.564)" fill="#fff"/>
        </g>
        <rect id="Rectangle_2852" data-name="Rectangle 2852" width="7.417" height="10.849" rx="3.708" transform="translate(-2740.09 -7640.83)" fill="#ffe94d"/>
        <rect id="Rectangle_2853" data-name="Rectangle 2853" width="95.314" height="37.804" rx="16.608" transform="translate(-2982.857 -7568.265)" fill="#00ac6a"/>
        <path id="Path_22219" data-name="Path 22219" d="M1245.192,1956.306v.027a6.55,6.55,0,0,0,6.255,6.808h75.065a6.55,6.55,0,0,0,6.255-6.808v-.027Z" transform="translate(-4224.042 -9493.603)" fill="#38be8b"/>
        <path id="Rectangle_2854" data-name="Rectangle 2854" d="M2.1,0h0a2.1,2.1,0,0,1,2.1,2.1V32.02a0,0,0,0,1,0,0H0a0,0,0,0,1,0,0V2.1A2.1,2.1,0,0,1,2.1,0Z" transform="translate(-2962.544 -7569.317)" fill="#1cb57a"/>
        <path id="Rectangle_2855" data-name="Rectangle 2855" d="M2.1,0h0a2.1,2.1,0,0,1,2.1,2.1V32.02a0,0,0,0,1,0,0H0a0,0,0,0,1,0,0V2.1A2.1,2.1,0,0,1,2.1,0Z" transform="translate(-2909.407 -7569.317)" fill="#1cb57a"/>
        <path id="Rectangle_2856" data-name="Rectangle 2856" d="M2.1,0h0a2.1,2.1,0,0,1,2.1,2.1V32.02a0,0,0,0,1,0,0H0a0,0,0,0,1,0,0V2.1A2.1,2.1,0,0,1,2.1,0Z" transform="translate(-2963.872 -7569.317)" fill="#38be8b"/>
        <path id="Rectangle_2857" data-name="Rectangle 2857" d="M2.1,0h0a2.1,2.1,0,0,1,2.1,2.1V32.02a0,0,0,0,1,0,0H0a0,0,0,0,1,0,0V2.1A2.1,2.1,0,0,1,2.1,0Z" transform="translate(-2910.736 -7569.317)" fill="#38be8b"/>
        <path id="Path_22220" data-name="Path 22220" d="M1264.263,1913.133h-2.186a4.773,4.773,0,0,0,0,9.52h2.186a4.773,4.773,0,0,0,0-9.52Z" transform="translate(-4235.401 -9468.126)" fill="#1cb57a"/>
        <ellipse id="Ellipse_265" data-name="Ellipse 265" cx="3.266" cy="4.248" rx="3.266" ry="4.248" transform="translate(-2977.087 -7554.468)" fill="#38be8b"/>
        <path id="Path_22221" data-name="Path 22221" d="M1515.483,1994.9h-13.409a4.919,4.919,0,0,1-4.919-4.92H1520.4A4.919,4.919,0,0,1,1515.483,1994.9Z" transform="translate(-4376.729 -9513.472)" fill="#019d78"/>
        <g id="Group_54399" data-name="Group 54399" transform="translate(-3385.14 -7717.057)">
          <g id="Group_54398" data-name="Group 54398" transform="translate(0 94.834)">
            <path id="Path_22222" data-name="Path 22222" d="M1216.591,1998.6s-3.442,3.191-2.771,5.458,3.778,3.778,4.2,6.549,2.1,4.282,3.61,4.282h7.2s1.113-1.95-1.574-2.538-3.7-3.844-3.532-6.866a54.143,54.143,0,0,0-.252-7.052l-5.709-1.344Z" transform="translate(-1213.733 -1897.48)"/>
            <path id="Path_22223" data-name="Path 22223" d="M1101.672,2015.492s-.618,7.261.893,8.017h19.359s-.018-2.308-3.124-2.811-8.564-2.351-9.488-6.465S1101.672,2015.492,1101.672,2015.492Z" transform="translate(-1056.582 -1906.124)"/>
            <path id="Path_22224" data-name="Path 22224" d="M1138.849,1786.722s-1.02,12.727-2.219,28.027c-1.629,20.783-3.589,46.311-3.783,51.147-.335,8.4-1.681,21.831-1.681,21.831s-3.188,3.191-9.571,1.846a219.719,219.719,0,0,1-7.312-39.465c-.025-.333-.051-.667-.076-1-1.511-20.654-3.861-64.147-3.861-64.147Z" transform="translate(-1077.43 -1779.921)" fill="#202020"/>
            <path id="Path_22225" data-name="Path 22225" d="M1138.849,1786.722s-1.02,12.727-2.219,28.027l-22.347,35.359c-.025-.333-.051-.667-.076-1-1.511-20.654-3.861-64.147-3.861-64.147Z" transform="translate(-1077.43 -1779.921)" fill="#303030"/>
            <path id="Path_22226" data-name="Path 22226" d="M1174.7,1781.972s-18.387,46.095-30.477,67.756-15.868,27.707-15.868,27.707-6.927-2.771-7.557-4.66c0,0,4.623-41.82,12.72-52.013,4.575-5.761,9.949-23.048,10.2-29.093s1.637-18.009,1.637-18.009Z" transform="translate(-1117.939 -1773.66)" fill="#202020"/>
          </g>
          <path id="Path_22227" data-name="Path 22227" d="M1131.068,1613.931s12.441,6.1,19.614,3.835a16.991,16.991,0,0,0-4.855-3.944c.249-1.463.441-2.732.552-3.808a35.73,35.73,0,0,0,.3-3.89l-4.8-3.834-4.552-3.669C1137.689,1608.939,1131.068,1613.931,1131.068,1613.931Z" transform="translate(-1098.5 -1581.82)" fill="#ffb27d"/>
          <path id="Path_22228" data-name="Path 22228" d="M1108.028,1694.343c-.028.772,1.6,1.655,2.317,1.986a50.233,50.233,0,0,0,15.917,4.579c6.648.689,14.51-.828,17.214-.773a1.116,1.116,0,0,0,.745-.3c.193-.138.331-8.276.193-18.51,0-.414,0-.828-.028-1.242v-.137c-.055-4-.193-8.193-.386-12.387-.386-9.213-1.1-18.1-2.317-23.006a24.985,24.985,0,0,0-7.779-12.414l-2.483-2.207a11.761,11.761,0,0,1-7.724-.938c-2.87-1.406-6.018-3.042-6.515-2.656-3.751,2.786-6.23,9.167-7.582,17.166a90.066,90.066,0,0,0-1.131,15.172c0,1.986.055,4.027.166,6.041a193.583,193.583,0,0,1-.386,25.9C1108.139,1692.219,1108.056,1693.46,1108.028,1694.343Z" transform="translate(-1082.016 -1597.147)" fill="#fff"/>
          <path id="Path_22229" data-name="Path 22229" d="M1121.96,1712.03c60.275-.082,11.117-44.937,11.117-44.937l-9.765-2.18a90.027,90.027,0,0,0-1.131,15.173c0,1.986.055,4.027.166,6.041A193.453,193.453,0,0,1,1121.96,1712.03Z" transform="translate(-1095.727 -1618.558)" fill="#ffdcdd"/>
          <path id="Path_22230" data-name="Path 22230" d="M1003.578,1667.9l.193,4.58.194,4.247.607,14.511,8.552,14.813s6.4,6.786,22.869,6.786c20.523,0,23.558-11.31,23.558-11.31l-.249-18.317-7.531-10.786,3.752-10.786-9.269-16.579-12.3-6.51-7.779,2.015-6.538-1.517-10.29,4.772Z" transform="translate(-950.532 -1603.95)"/>
          <path id="Path_22231" data-name="Path 22231" d="M1058.9,1631.37l1.85-5.922a1.046,1.046,0,0,1,1.052-.733c1.662.085,5.3.308,5.3.631C1067.1,1625.764,1058.9,1631.37,1058.9,1631.37Z" transform="translate(-982.751 -1596.28)" fill="#202020"/>
          <path id="Path_22232" data-name="Path 22232" d="M1083.591,1634.163l-.267-4.075a.841.841,0,0,0-1.061-.756l-1.673.458a1.418,1.418,0,0,0-.292,2.62Z" transform="translate(-1008.441 -1598.823)" fill="#202020"/>
          <path id="Path_22233" data-name="Path 22233" d="M1078.455,1638.954c-.133-.242-.265-.48-.375-.675a.915.915,0,0,0-.787-.47l-2.354-.029a.912.912,0,0,0-.743.366l-.366.487a.914.914,0,0,0-.171.7l.057.356a.915.915,0,0,0,.947.767l3.032-.144A.915.915,0,0,0,1078.455,1638.954Z" transform="translate(-1000.79 -1603.522)" fill="#202020"/>
          <path id="Path_22234" data-name="Path 22234" d="M1042.139,1653.182l-4.911,12.914a.891.891,0,0,1-1.643.053l-2-4.387a1.777,1.777,0,0,1,.506-2.124Z" transform="translate(-946.428 -1612.057)" fill="#202020"/>
          <path id="Path_22235" data-name="Path 22235" d="M1008.748,1714.54s-5.654,7.854-4.484,9.026,12.028,1.767,12.028,1.767Z" transform="translate(-907.509 -1646.061)" fill="#202020"/>
          <path id="Path_22236" data-name="Path 22236" d="M1079.313,1756.763s22.381,7.435,21.154,10.113-12.622,4.694-12.622,4.694Z" transform="translate(-1025.261 -1669.461)" fill="#202020"/>
          <path id="Path_22237" data-name="Path 22237" d="M1079.691,1710l.193,4.248,20.8,2.014a.783.783,0,0,0,.5-1.435l-12.855-8.166a2.728,2.728,0,0,0-2.786-.055Z" transform="translate(-1026.453 -1641.469)" fill="#202020"/>
          <path id="Path_22238" data-name="Path 22238" d="M1057.964,1645.648l5.62,1.437a1.426,1.426,0,0,1,.849,2.149l-.665,1.043a1.082,1.082,0,0,1-1.733.122Z" transform="translate(-979.886 -1607.882)" fill="#202020"/>
          <path id="Path_22239" data-name="Path 22239" d="M1088.65,1644.021l-5.618-.988a1.373,1.373,0,0,0-1.043.24l-2.241,1.617a.481.481,0,0,0,.378.861Z" transform="translate(-1013.5 -1606.421)" fill="#202020"/>
          <path id="Path_22240" data-name="Path 22240" d="M1070.808,1723.974l2.232-.716a4.706,4.706,0,0,1,6.84-2.854s2.142,1.137,1.2,2.481-.771.636-2.061,2.573-3.332,2.855-4.958,2.124l-1.854.053Z" transform="translate(-1002.273 -1648.982)" fill="#ab7041"/>
          <path id="Path_22241" data-name="Path 22241" d="M1091.256,1632.935a46.965,46.965,0,0,0,.89,46.794c4.538,7.831,38.821.388,38.821.388s1.336-2.414-2.241-4.957c0,0-22.825-3.864-25.545-4.512-2.414-.575-.8-22.759-3.563-29.2A16.216,16.216,0,0,0,1091.256,1632.935Z" transform="translate(-1058.69 -1600.836)" fill="#fff"/>
          <path id="Path_22242" data-name="Path 22242" d="M1140.039,1607.127s3.145,5.821,9.131,7.448a35.641,35.641,0,0,0,.3-3.89l-4.8-3.834Z" transform="translate(-1101.292 -1586.381)" fill="#ed985f"/>
          <path id="Path_22243" data-name="Path 22243" d="M1144.133,1590.666s-11.869,1.972-12.983-5.438-3.4-12.146,4.135-13.718,9.432,1.034,10.405,3.417S1147.191,1589.962,1144.133,1590.666Z" transform="translate(-1093.762 -1566.53)" fill="#ffb27d"/>
          <path id="Path_22244" data-name="Path 22244" d="M1122.242,1565.027c-.108-.125-.356-.226-.91-.257a2.217,2.217,0,0,1,1.033-.3,2.824,2.824,0,0,1,1.848-2.5,1.683,1.683,0,0,0-.8,1.216c1.533-1.6,4.818-2.763,13.913-2.033,11.987.961,8.036,8.756,6.484,9.684s-5.458-1.618-8.35-1.385-3.441,4.476-4.422,5.058-.595-.447-1.922-1.056-1.453,1.624-1.07,3.076-1.44,3.368-1.44,3.368l-1.843-2.015c-1.843-2.016-3.579-10.552-2.741-12.373C1122.093,1565.354,1122.166,1565.191,1122.242,1565.027Z" transform="translate(-1089.168 -1560.934)" fill="#393b3a"/>
        </g>
        <g id="Group_54402" data-name="Group 54402" transform="translate(-3323.375 -7584.86)">
          <path id="Path_22245" data-name="Path 22245" d="M253.457,1874.925l-14.027-1.336-8.951,7.08-3.412,13.173,4.213,9-9.218-3.874L200.618,1923l-3.907,20.439,7.214,5.11h62.218l9.017-29.456-.3-24.045Z" transform="translate(-196.71 -1869.064)"/>
          <g id="Group_54400" data-name="Group 54400" transform="translate(3.908 29.907)">
            <path id="Path_22246" data-name="Path 22246" d="M252.5,1929.444s8.149,10.688,9.886,11.088,7.081-.4,6.947-1.2-7.615-6.011-7.615-6.011Z" transform="translate(-231.055 -1929.444)" fill="#303030" opacity="0.5"/>
            <path id="Path_22247" data-name="Path 22247" d="M205.309,1982.313l11.345,8.481a3.094,3.094,0,0,1,1.183,3.09c-.5,2.5-1.433,6.567-2.17,6.752C214.6,2000.9,205.309,1982.313,205.309,1982.313Z" transform="translate(-205.309 -1958.287)" fill="#303030" opacity="0.5"/>
            <path id="Path_22248" data-name="Path 22248" d="M344.389,1978.538s-16.232,8.416-16.832,9.819,5.01,12.826,7.214,11.222S344.389,1978.538,344.389,1978.538Z" transform="translate(-271.979 -1956.228)" fill="#303030" opacity="0.5"/>
          </g>
          <g id="Group_54401" data-name="Group 54401" transform="translate(18.769)">
            <path id="Path_22249" data-name="Path 22249" d="M256.62,1876.64s-11.623-3.073-12.691-2.538-6.412,7.882-5.878,9.218S256.62,1876.64,256.62,1876.64Z" transform="translate(-238.013 -1869.31)"/>
            <path id="Path_22250" data-name="Path 22250" d="M279.76,1863.748l-.8,7.214,4.943-4.409S282.03,1862.947,279.76,1863.748Z" transform="translate(-260.351 -1863.632)"/>
            <path id="Path_22251" data-name="Path 22251" d="M279.309,1879.091c0-.1-.167-1.6-.434-1.537a7.974,7.974,0,0,0-2.071,1.37c0,.2-.334,1.7.367,1.637S279.309,1879.091,279.309,1879.091Z" transform="translate(-259.133 -1871.226)" fill="#303030"/>
            <path id="Path_22252" data-name="Path 22252" d="M279.218,1882.684s-1.736,6.279-1.469,6.813,3.874,4.609,4.342,4.408S279.218,1882.684,279.218,1882.684Z" transform="translate(-259.676 -1874.026)" fill="#303030" opacity="0.5"/>
            <path id="Path_22253" data-name="Path 22253" d="M282.192,1881.968s2,6.279,2.538,6.212,3.34-5.01,2.939-5.411S282.192,1881.968,282.192,1881.968Z" transform="translate(-262.115 -1873.635)" fill="#303030" opacity="0.5"/>
            <path id="Path_22254" data-name="Path 22254" d="M282.83,1880.129l1.708-.875a.3.3,0,0,1,.255-.011l.712.295a.162.162,0,0,1-.045.311Z" transform="translate(-262.463 -1872.136)" fill="#181818" opacity="0.5"/>
            <path id="Path_22255" data-name="Path 22255" d="M278.508,1883.215l-.975.977a.335.335,0,0,0,.034.5l.329.252a.187.187,0,0,0,.3-.112Z" transform="translate(-259.52 -1874.316)" fill="#181818" opacity="0.5"/>
            <path id="Path_22256" data-name="Path 22256" d="M266.566,1879.076c-.15-.051-7.515-.8-8.115-.5s-3.357,2.855-2.255,3.006S266.566,1879.076,266.566,1879.076Z" transform="translate(-247.793 -1871.746)" fill="#303030"/>
          </g>
          <path id="Path_22257" data-name="Path 22257" d="M212.584,2034.816s25.888-3.885,28.559-2.95,11.89,2.805,11.89,2.805,11.489-2.938,12.691-2.271a15.337,15.337,0,0,1,2.806,2.4Z" transform="translate(-205.37 -1955.335)" fill="#303030" opacity="0.5"/>
        </g>
        <g id="Group_54410" data-name="Group 54410" transform="translate(-3173.136 -7733.723)">
          <g id="Group_54409" data-name="Group 54409" transform="translate(27.55 26.512)">
            <g id="Group_54408" data-name="Group 54408">
              <path id="Path_22258" data-name="Path 22258" d="M127.205,58.254l4.668,2.363V56.164s.215-2.685-3.218-3.54c0,0-5.957-1.4-8.051,2.041l.161,5.8s3.325,2.363,4.668,3.061,1.826.967,1.772,1.987.107,1.826-.806,1.826c-.43,0-.806-.161-1.02-1.128a17.371,17.371,0,0,0-.107-1.933l-4.614-2.265-.269,3.7a3.514,3.514,0,0,0,.107,1.181,3.656,3.656,0,0,0,2.041,2.739,12.373,12.373,0,0,0,3.97.913c.859.054,4.614-.054,5.473-3.061a12.141,12.141,0,0,0,.161-4.077,4.814,4.814,0,0,0-2.739-3c-2.094-1.128-3.862-1.826-4.023-2.47-.054-.644-.107-1.557-.107-1.557s0-1.02.967-.967c.269.107.967.376.967,1.02S127.205,58.254,127.205,58.254Z" transform="translate(-76.499 -42.132)" fill="#ee3124"/>
              <g id="Group_54404" data-name="Group 54404" transform="translate(66.886 10.102)">
                <g id="Group_54403" data-name="Group 54403">
                  <path id="Path_22259" data-name="Path 22259" d="M210.274,78.6c.081,1.047.725,1.168.953,1.128a.732.732,0,0,0,.806-.859l.054-3.97C209.79,75.424,210.193,77.558,210.274,78.6Z" transform="translate(-192.878 -64.696)" fill="none"/>
                  <path id="Path_22260" data-name="Path 22260" d="M215.738,56.025a3.6,3.6,0,0,0-3.544-3.9,4.481,4.481,0,0,0-3.58,1.531c-3.9-3.379-7.044-.04-7.044-.04V52.485h-5.393v4.466c-.322-5.151-4.99-4.748-6.118-4.789-4.869-.322-6,3.54-6,3.54-1.047-3.7-5.312-3.5-6.44-3.54-5.514.242-5.876,5.473-6.077,6.8a36.378,36.378,0,0,0,.564,7.205c1.329,4.95,6.6,4.144,6.6,4.144a5.3,5.3,0,0,0,5.191-3.057,3.46,3.46,0,0,0,1.128,2.256,4.781,4.781,0,0,0,4.547.322c.926-.443,1.289.2,1.289.2h10.665V57.519c0-1.853.846-1.732.846-1.732,1.007,0,.886,1.45.886,1.45v12.8h5.433s-.04-11.349,0-12.84.644-1.41.846-1.45c.886,0,.886,1.369.886,1.369V70h5.312S215.819,59.726,215.738,56.025Zm-25.89,11.108c-.228.04-.873-.081-.953-1.128s-.483-3.177,1.813-3.7l-.054,3.97S190.757,67.186,189.848,67.132Zm.908-10.248c-.107,1.611.107,1.987-1.289,2.631s-5.366,1.719-5.312,3.325h-4.4l-.054,2.9s-.107,1.665-1.128,1.45a2.236,2.236,0,0,1-1.074-2.2v-7.89s-.215-1.826,1.074-1.88c.215.054,1.4.054,1.128,3.33h4.131v2.47l4.99-2.2.107-2.793a.784.784,0,0,1,.913-.7S190.864,55.273,190.757,56.884Z" transform="translate(-171.499 -52.099)" fill="#ee3124"/>
                  <path id="Path_22261" data-name="Path 22261" d="M197.246,59.177a.784.784,0,0,0-.913.7l-.107,2.793-4.99,2.2V62.4h-4.131c.268-3.276-.913-3.276-1.128-3.33-1.289.054-1.074,1.88-1.074,1.88v7.89a2.236,2.236,0,0,0,1.074,2.2c1.02.215,1.128-1.45,1.128-1.45l.054-2.9h4.4c-.054-1.611,3.916-2.685,5.312-3.325s1.182-1.02,1.289-2.631S197.246,59.177,197.246,59.177Z" transform="translate(-178.897 -55.95)" fill="none"/>
                </g>
                <path id="Path_22262" data-name="Path 22262" d="M210.274,78.6c.081,1.047.725,1.168.953,1.128a.732.732,0,0,0,.806-.859l.054-3.97C209.79,75.424,210.193,77.558,210.274,78.6Z" transform="translate(-192.878 -64.696)" fill="none"/>
              </g>
              <g id="Group_54405" data-name="Group 54405" transform="translate(55.165 10.208)">
                <path id="Path_22263" data-name="Path 22263" d="M157.951,56.477c-.43-4.346-5.2-4.023-6.44-4.131a5.517,5.517,0,0,0-5.473,2.9c-.7,1.45-.376,6.01-.376,6.01l5.044-2.309c-.215-3.7.859-3.486.859-3.486,1.074,0,.913,1.128.913,2.631a1.979,1.979,0,0,1-1.611,1.826,30.589,30.589,0,0,0-4.184,1.88c-1.4.859-1.128,3.486-1.128,5.688.859,3.808,5.1,2.9,5.42,2.739,1.45-.806,1.665,0,1.665,0l5.312-.054.107-3.647C158.058,66.511,158,58.3,157.951,56.477Zm-5.42,9.631s-.081,1.4-.886,1.262c-.269-.027-.994-.134-.967-1.933.081-1.369-.188-2.6,1.853-3Z" transform="translate(-145.534 -52.335)" fill="#ee3124"/>
                <path id="Path_22264" data-name="Path 22264" d="M157.029,77.907c-.027,1.8.7,1.906.967,1.933.806.134.886-1.262.886-1.262V74.9C156.841,75.3,157.11,76.538,157.029,77.907Z" transform="translate(-151.884 -64.801)" fill="none"/>
              </g>
              <path id="Path_22265" data-name="Path 22265" d="M70.915,52.9h5.044a19.852,19.852,0,0,0-.376,2.309c-.054.859.161,5.151.161,5.151s1.343,6.762-3.594,11.43c0,0-14.115,14.652-33.65,2.9L41.185,71.9s9.336,5.9,20.179,2.148a33.815,33.815,0,0,0,4.453-2.2A3.235,3.235,0,0,0,67,68.357c-.43-2.2-3.061-11.591-3.061-11.591l-.376-3.7,4.721-.215L70,63.421Z" transform="translate(-31.362 -42.417)" fill="#ee3124"/>
              <path id="Path_22266" data-name="Path 22266" d="M72.153,56.758v8.91H66.68V44.2h5.581v7.729H74.3V44.2h5.473V65.561H74.3v-8.79Z" transform="translate(-46.885 -37.632)" fill="#ee3124"/>
              <path id="Path_22267" data-name="Path 22267" d="M69.855,88.766A18.548,18.548,0,0,1,57.834,93c-.161,0-8.749-.215-12.5-5.634,0,0,4.238,4.614,12.4,4.775A22.21,22.21,0,0,0,69.855,88.766Z" transform="translate(-35.135 -61.489)" fill="#ee3124"/>
              <g id="Group_54406" data-name="Group 54406">
                <path id="Path_22268" data-name="Path 22268" d="M44.578,29.538c-13.592.644-20.04,7.353-22.028,14.169,2.573-7.621,9.716-13.43,21.6-13.632,12.643-.215,22.462,8.373,22.676,18.944a15.233,15.233,0,0,1-1.056,5.719,15.5,15.5,0,0,0,1.589-6.767C67.415,38.5,57.059,28.947,44.578,29.538Z" transform="translate(-22.55 -29.512)" fill="#ee3124"/>
              </g>
              <path id="Path_22269" data-name="Path 22269" d="M35.52,61.271c-4.838-2.918-7.93-7.366-7.93-12.347C27.59,40.129,37.225,33,49.112,33a27.186,27.186,0,0,1,11.64,2.529" transform="translate(-25.334 -31.439)" fill="none" stroke="#ee3124" stroke-width="0.36"/>
              <path id="Path_22270" data-name="Path 22270" d="M123.76,68.57" transform="translate(-78.373 -51.096)" fill="none" stroke="#000" stroke-width="0.711"/>
              <path id="Path_22271" data-name="Path 22271" d="M42.232,60.386C32.951,59.2,32.87,57.03,32.87,57.03" transform="translate(-28.251 -44.719)" fill="none" stroke="#ee3124" stroke-width="0.36"/>
              <path id="Path_22272" data-name="Path 22272" d="M58.976,43.96s-4.346,5.2-5.366,9.179" transform="translate(-39.71 -37.497)" fill="none" stroke="#ee3124" stroke-width="0.18"/>
              <path id="Path_22273" data-name="Path 22273" d="M53.693,38.81s-.483,1.02,2.417,1.665a25.081,25.081,0,0,1,2.9.7" transform="translate(-39.739 -34.649)" fill="none" stroke="#ee3124" stroke-width="0.36"/>
              <path id="Path_22274" data-name="Path 22274" d="M38.92,46.648s3.594-4.023,7.138-5.688" transform="translate(-31.594 -35.837)" fill="none" stroke="#ee3124" stroke-width="0.18"/>
              <path id="Path_22275" data-name="Path 22275" d="M34.618,55s-2.658,3.594-2.658,6.9" transform="translate(-27.749 -43.598)" fill="none" stroke="#ee3124" stroke-width="0.18"/>
              <path id="Path_22276" data-name="Path 22276" d="M50.757,39.77s-4.426,2.551-6.467,5.2a18.226,18.226,0,0,0-4.05,7.434" transform="translate(-32.323 -35.179)" fill="none" stroke="#ee3124" stroke-width="0.18"/>
              <path id="Path_22277" data-name="Path 22277" d="M56.167,52.449S50,51.965,47.31,50.73" transform="translate(-36.229 -41.237)" fill="none" stroke="#ee3124" stroke-width="0.36"/>
              <path id="Path_22278" data-name="Path 22278" d="M41.972,45.46l-1.231.967L39.4,45.46l.51,1.5-1.289.886h1.611l.479,1.607.515-1.607,1.768.242-1.477-1.1Z" transform="translate(-31.428 -38.325)" fill="#fff" stroke="#ee3124" stroke-width="0.36"/>
              <g id="Group_54407" data-name="Group 54407" transform="translate(40.012 29.717)">
                <path id="Path_22279" data-name="Path 22279" d="M112.273,98.452H113l-.063.291a1.829,1.829,0,0,1,.434-.277,1.172,1.172,0,0,1,.434-.085.915.915,0,0,1,.721.309,1.361,1.361,0,0,1,.273.917,1.89,1.89,0,0,1-.47,1.3,1.241,1.241,0,0,1-.949.452.948.948,0,0,1-.855-.456l-.309,1.472h-.77Zm.465,1.625a.755.755,0,0,0,.161.515.5.5,0,0,0,.38.183.579.579,0,0,0,.367-.139,1.035,1.035,0,0,0,.3-.456,1.79,1.79,0,0,0,.116-.591.7.7,0,0,0-.152-.488.508.508,0,0,0-.389-.17.6.6,0,0,0-.4.157,1.014,1.014,0,0,0-.282.461A1.709,1.709,0,0,0,112.739,100.076Z" transform="translate(-111.45 -97.288)" fill="#006838"/>
                <path id="Path_22280" data-name="Path 22280" d="M119.75,100.117a1.744,1.744,0,0,1,.448-1.258,1.541,1.541,0,0,1,1.173-.47,1.341,1.341,0,0,1,.98.345,1.241,1.241,0,0,1,.354.931,1.749,1.749,0,0,1-.443,1.195,1.494,1.494,0,0,1-1.181.5,1.516,1.516,0,0,1-.712-.161,1.034,1.034,0,0,1-.461-.456A1.264,1.264,0,0,1,119.75,100.117Zm2.188-.55a.6.6,0,0,0-.161-.439.556.556,0,0,0-.412-.166.692.692,0,0,0-.443.152.976.976,0,0,0-.3.448,1.587,1.587,0,0,0-.107.537.682.682,0,0,0,.166.483.542.542,0,0,0,.416.179.645.645,0,0,0,.528-.269A1.391,1.391,0,0,0,121.938,99.567Z" transform="translate(-116.035 -97.294)" fill="#006838"/>
                <path id="Path_22281" data-name="Path 22281" d="M127.782,98.54h.77l-.349,1.683a2.292,2.292,0,0,0-.063.376.291.291,0,0,0,.09.21.328.328,0,0,0,.233.09.538.538,0,0,0,.2-.04.881.881,0,0,0,.206-.116,1.416,1.416,0,0,0,.188-.179,1.215,1.215,0,0,0,.157-.269,2.3,2.3,0,0,0,.112-.4l.282-1.352h.77l-.6,2.837h-.716l.081-.385a1.457,1.457,0,0,1-1.025.452.744.744,0,0,1-.55-.2.726.726,0,0,1-.2-.537,3.863,3.863,0,0,1,.09-.586Z" transform="translate(-120.245 -97.376)" fill="#006838"/>
                <path id="Path_22282" data-name="Path 22282" d="M134.95,98.457h.716l-.116.55a1.1,1.1,0,0,1,.868-.618.867.867,0,0,1,.358.085l-.3.627a.732.732,0,0,0-.224-.036.689.689,0,0,0-.4.148,1.006,1.006,0,0,0-.318.4,4.042,4.042,0,0,0-.228.792l-.188.891h-.77Z" transform="translate(-124.102 -97.294)" fill="#006838"/>
                <path id="Path_22283" data-name="Path 22283" d="M143.421,98.54h.765l-.349,1.683a2.294,2.294,0,0,0-.063.376.291.291,0,0,0,.09.21.321.321,0,0,0,.233.09.538.538,0,0,0,.2-.04.881.881,0,0,0,.206-.116,1.186,1.186,0,0,0,.188-.179,1.216,1.216,0,0,0,.157-.269,2.307,2.307,0,0,0,.112-.4l.282-1.352h.765l-.6,2.837H144.7l.081-.385a1.457,1.457,0,0,1-1.025.452.744.744,0,0,1-.55-.2.726.726,0,0,1-.2-.537,3.865,3.865,0,0,1,.09-.586Z" transform="translate(-128.88 -97.376)" fill="#006838"/>
                <path id="Path_22284" data-name="Path 22284" d="M150.714,98.457h.725l-.076.367a2.067,2.067,0,0,1,.51-.336,1.246,1.246,0,0,1,.5-.1.762.762,0,0,1,.555.2.715.715,0,0,1,.2.533,3.584,3.584,0,0,1-.09.568L152.7,101.3h-.77l.336-1.611a3.945,3.945,0,0,0,.076-.43.314.314,0,0,0-.09-.233.326.326,0,0,0-.242-.085.7.7,0,0,0-.376.143.941.941,0,0,0-.322.376,3.138,3.138,0,0,0-.192.676l-.242,1.164h-.77Z" transform="translate(-132.808 -97.294)" fill="#006838"/>
                <path id="Path_22285" data-name="Path 22285" d="M161.525,98.457h.721l-.072.345a1.274,1.274,0,0,1,.891-.412.8.8,0,0,1,.5.134.613.613,0,0,1,.224.367,1.114,1.114,0,0,1,.421-.358,1.248,1.248,0,0,1,.573-.143.71.71,0,0,1,.528.183.64.64,0,0,1,.188.483,2.975,2.975,0,0,1-.076.506l-.363,1.736h-.765l.363-1.736c.045-.215.067-.34.067-.367a.246.246,0,0,0-.072-.188.3.3,0,0,0-.215-.067.628.628,0,0,0-.51.3,2.072,2.072,0,0,0-.277.765l-.269,1.289h-.77l.358-1.714a2.448,2.448,0,0,0,.058-.385.231.231,0,0,0-.076-.183.286.286,0,0,0-.21-.072.493.493,0,0,0-.26.076.723.723,0,0,0-.233.206,1.178,1.178,0,0,0-.17.336,3.99,3.99,0,0,0-.1.434L161.7,101.3h-.77Z" transform="translate(-138.786 -97.294)" fill="#006838"/>
                <path id="Path_22286" data-name="Path 22286" d="M172.12,100.117a1.744,1.744,0,0,1,.448-1.258,1.537,1.537,0,0,1,1.168-.47,1.341,1.341,0,0,1,.98.345,1.241,1.241,0,0,1,.354.931,1.749,1.749,0,0,1-.443,1.195,1.494,1.494,0,0,1-1.182.5,1.516,1.516,0,0,1-.712-.161,1.034,1.034,0,0,1-.461-.456A1.363,1.363,0,0,1,172.12,100.117Zm2.193-.55a.6.6,0,0,0-.161-.439.556.556,0,0,0-.412-.166.692.692,0,0,0-.443.152.976.976,0,0,0-.3.448,1.587,1.587,0,0,0-.107.537.682.682,0,0,0,.166.483.542.542,0,0,0,.416.179.645.645,0,0,0,.528-.269A1.391,1.391,0,0,0,174.313,99.567Z" transform="translate(-144.968 -97.294)" fill="#006838"/>
                <path id="Path_22287" data-name="Path 22287" d="M179.965,98.457h.729l-.076.367a2.067,2.067,0,0,1,.51-.336,1.252,1.252,0,0,1,.5-.1.744.744,0,0,1,.55.2.715.715,0,0,1,.2.533,3.588,3.588,0,0,1-.09.568l-.336,1.607h-.77l.336-1.611a3.949,3.949,0,0,0,.076-.43.311.311,0,0,0-.085-.233.325.325,0,0,0-.242-.085.7.7,0,0,0-.376.143.942.942,0,0,0-.322.376,3.14,3.14,0,0,0-.192.676l-.242,1.164h-.77Z" transform="translate(-148.974 -97.294)" fill="#006838"/>
                <path id="Path_22288" data-name="Path 22288" d="M189.584,100.046h-.729l.063-.309a1.4,1.4,0,0,1-.412.286,1.138,1.138,0,0,1-.456.085.92.92,0,0,1-.716-.3,1.274,1.274,0,0,1-.273-.886,2.1,2.1,0,0,1,.385-1.231,1.185,1.185,0,0,1,1.02-.55.951.951,0,0,1,.859.456l.309-1.468h.77Zm-1.777-1.155a.679.679,0,0,0,.152.474.482.482,0,0,0,.38.17.625.625,0,0,0,.389-.143.99.99,0,0,0,.291-.439,1.649,1.649,0,0,0,.107-.564.717.717,0,0,0-.166-.5.5.5,0,0,0-.38-.188.642.642,0,0,0-.555.376A1.606,1.606,0,0,0,187.807,98.891Z" transform="translate(-153.222 -96.045)" fill="#006838"/>
                <path id="Path_22289" data-name="Path 22289" d="M197.2,100.119h-1.924c0,.031,0,.054,0,.072a.646.646,0,0,0,.161.456.52.52,0,0,0,.394.175.654.654,0,0,0,.6-.394l.689.116a1.448,1.448,0,0,1-.537.622,1.4,1.4,0,0,1-.752.206,1.251,1.251,0,0,1-.931-.363,1.289,1.289,0,0,1-.358-.958,1.753,1.753,0,0,1,.322-1.038,1.457,1.457,0,0,1,1.262-.613,1.089,1.089,0,0,1,.828.322,1.247,1.247,0,0,1,.309.9A2.113,2.113,0,0,1,197.2,100.119Zm-.644-.47c0-.031,0-.058,0-.076a.7.7,0,0,0-.143-.474.481.481,0,0,0-.38-.157.607.607,0,0,0-.43.179.962.962,0,0,0-.255.528h1.2Z" transform="translate(-157.349 -97.299)" fill="#006838"/>
                <path id="Path_22290" data-name="Path 22290" d="M207.274,100.046h-.729l.063-.309a1.4,1.4,0,0,1-.412.286,1.137,1.137,0,0,1-.456.085.92.92,0,0,1-.716-.3,1.274,1.274,0,0,1-.273-.886,2.1,2.1,0,0,1,.385-1.231,1.185,1.185,0,0,1,1.02-.55.951.951,0,0,1,.859.456l.309-1.468h.77ZM205.5,98.891a.68.68,0,0,0,.152.474.479.479,0,0,0,.376.17.625.625,0,0,0,.389-.143.955.955,0,0,0,.291-.439,1.65,1.65,0,0,0,.107-.564.717.717,0,0,0-.166-.5.5.5,0,0,0-.385-.188.637.637,0,0,0-.555.376A1.644,1.644,0,0,0,205.5,98.891Z" transform="translate(-162.995 -96.045)" fill="#006838"/>
                <path id="Path_22291" data-name="Path 22291" d="M214.892,100.119h-1.929c0,.031,0,.054,0,.072a.646.646,0,0,0,.161.456.52.52,0,0,0,.394.175.654.654,0,0,0,.6-.394l.689.116a1.449,1.449,0,0,1-.537.622,1.4,1.4,0,0,1-.752.206,1.251,1.251,0,0,1-.931-.363,1.307,1.307,0,0,1-.358-.958,1.753,1.753,0,0,1,.322-1.038A1.457,1.457,0,0,1,213.8,98.4a1.082,1.082,0,0,1,.828.322,1.247,1.247,0,0,1,.309.9A1.909,1.909,0,0,1,214.892,100.119Zm-.649-.47c0-.031,0-.058,0-.076a.676.676,0,0,0-.143-.474.475.475,0,0,0-.38-.157.615.615,0,0,0-.43.179.962.962,0,0,0-.255.528h1.2Z" transform="translate(-167.122 -97.299)" fill="#006838"/>
                <path id="Path_22292" data-name="Path 22292" d="M222.473,98.452h.729l-.063.291a1.829,1.829,0,0,1,.434-.277,1.172,1.172,0,0,1,.434-.085.915.915,0,0,1,.721.309,1.338,1.338,0,0,1,.273.917,1.89,1.89,0,0,1-.47,1.3,1.241,1.241,0,0,1-.949.452.949.949,0,0,1-.855-.456l-.309,1.472h-.77Zm.461,1.625a.755.755,0,0,0,.161.515.5.5,0,0,0,.38.183.579.579,0,0,0,.367-.139.994.994,0,0,0,.291-.456,1.79,1.79,0,0,0,.116-.591.7.7,0,0,0-.152-.488.508.508,0,0,0-.389-.17.6.6,0,0,0-.4.157.973.973,0,0,0-.277.461A1.853,1.853,0,0,0,222.934,100.076Z" transform="translate(-172.332 -97.288)" fill="#006838"/>
                <path id="Path_22293" data-name="Path 22293" d="M230.19,98.457h.716l-.116.55a1.1,1.1,0,0,1,.868-.618.866.866,0,0,1,.358.085l-.3.627a.732.732,0,0,0-.224-.036.7.7,0,0,0-.4.148,1.006,1.006,0,0,0-.318.4,4.043,4.043,0,0,0-.228.792l-.188.891h-.77Z" transform="translate(-176.719 -97.294)" fill="#006838"/>
                <path id="Path_22294" data-name="Path 22294" d="M234.71,100.117a1.744,1.744,0,0,1,.448-1.258,1.541,1.541,0,0,1,1.173-.47,1.36,1.36,0,0,1,.985.345,1.241,1.241,0,0,1,.354.931,1.749,1.749,0,0,1-.443,1.195,1.494,1.494,0,0,1-1.181.5,1.516,1.516,0,0,1-.712-.161,1.057,1.057,0,0,1-.461-.456A1.269,1.269,0,0,1,234.71,100.117Zm2.188-.55a.6.6,0,0,0-.161-.439.556.556,0,0,0-.412-.166.692.692,0,0,0-.443.152.976.976,0,0,0-.3.448,1.587,1.587,0,0,0-.107.537.682.682,0,0,0,.166.483.542.542,0,0,0,.416.179.645.645,0,0,0,.528-.269A1.368,1.368,0,0,0,236.9,99.567Z" transform="translate(-179.547 -97.294)" fill="#006838"/>
                <path id="Path_22295" data-name="Path 22295" d="M242.2,98.452h.729l-.063.291a1.762,1.762,0,0,1,.439-.277,1.172,1.172,0,0,1,.434-.085.915.915,0,0,1,.721.309,1.338,1.338,0,0,1,.273.917,1.908,1.908,0,0,1-.465,1.3,1.241,1.241,0,0,1-.949.452.948.948,0,0,1-.855-.456l-.309,1.472h-.77Zm.465,1.625a.755.755,0,0,0,.161.515.5.5,0,0,0,.38.183.589.589,0,0,0,.367-.139,1.035,1.035,0,0,0,.3-.456,1.79,1.79,0,0,0,.116-.591.7.7,0,0,0-.152-.488.508.508,0,0,0-.389-.17.6.6,0,0,0-.4.157.973.973,0,0,0-.277.461A1.605,1.605,0,0,0,242.67,100.076Z" transform="translate(-183.238 -97.288)" fill="#006838"/>
                <path id="Path_22296" data-name="Path 22296" d="M249.91,98.457h.716l-.112.55a1.1,1.1,0,0,1,.868-.618.832.832,0,0,1,.354.085l-.3.627a.732.732,0,0,0-.224-.036.689.689,0,0,0-.4.148,1.007,1.007,0,0,0-.318.4,4.043,4.043,0,0,0-.228.792l-.188.891h-.77Z" transform="translate(-187.613 -97.294)" fill="#006838"/>
                <path id="Path_22297" data-name="Path 22297" d="M257.072,100.119h-1.929c0,.031,0,.054,0,.072a.646.646,0,0,0,.161.456.52.52,0,0,0,.394.175.654.654,0,0,0,.6-.394l.689.116a1.448,1.448,0,0,1-.537.622,1.4,1.4,0,0,1-.752.206,1.251,1.251,0,0,1-.931-.363,1.307,1.307,0,0,1-.358-.958,1.753,1.753,0,0,1,.322-1.038,1.457,1.457,0,0,1,1.262-.613,1.082,1.082,0,0,1,.828.322,1.247,1.247,0,0,1,.309.9A1.906,1.906,0,0,1,257.072,100.119Zm-.649-.47c0-.031,0-.058,0-.076a.7.7,0,0,0-.143-.474.475.475,0,0,0-.38-.157.607.607,0,0,0-.43.179.963.963,0,0,0-.255.528h1.2Z" transform="translate(-190.425 -97.299)" fill="#006838"/>
                <path id="Path_22298" data-name="Path 22298" d="M261.43,97.893l.116-.568h.376l.242-.958.729-.027-.206.985h.47l-.116.568h-.47l-.251,1.19c-.045.215-.067.34-.067.367a.185.185,0,0,0,.054.139.322.322,0,0,0,.2.049c.036,0,.121,0,.255-.018l-.121.568a2.027,2.027,0,0,1-.407.04.906.906,0,0,1-.591-.157.531.531,0,0,1-.184-.434,3.884,3.884,0,0,1,.1-.6l.237-1.141Z" transform="translate(-194.309 -96.161)" fill="#006838"/>
                <path id="Path_22299" data-name="Path 22299" d="M267.962,98.759h-1.929c0,.031,0,.054,0,.072a.646.646,0,0,0,.161.456.52.52,0,0,0,.394.175.654.654,0,0,0,.6-.394l.689.116a1.448,1.448,0,0,1-.537.622,1.4,1.4,0,0,1-.752.206,1.251,1.251,0,0,1-.931-.363,1.29,1.29,0,0,1-.358-.958,1.753,1.753,0,0,1,.322-1.038,1.457,1.457,0,0,1,1.262-.613,1.082,1.082,0,0,1,.828.322,1.247,1.247,0,0,1,.309.9A2.127,2.127,0,0,1,267.962,98.759Zm-.649-.47c0-.031,0-.058,0-.076a.7.7,0,0,0-.143-.474.481.481,0,0,0-.38-.157.589.589,0,0,0-.425.179.962.962,0,0,0-.255.528Zm-.076-2.35h.819l-.868.8h-.51Z" transform="translate(-196.442 -95.94)" fill="#006838"/>
              </g>
              <line id="Line_732" data-name="Line 732" x1="84.789" transform="translate(26.309 35.866)" fill="none" stroke="#ee3124" stroke-width="0.72"/>
            </g>
          </g>
        </g>
      </g>
    </g>
  </g>
</svg>
